<?xml version="1.0" encoding="iso-8859-1"?>
<!-- Generator: Adobe Illustrator 19.0.1, SVG Export Plug-In . SVG Version: 6.00 Build 0)  -->
<svg version="1.1" xmlns="http://www.w3.org/2000/svg" xmlns:xlink="http://www.w3.org/1999/xlink" x="0px" y="0px"
	 viewBox="0 0 128 128" style="enable-background:new 0 0 128 128;" xml:space="preserve">
<g id="_x36_">
	<path id="_x31__4_" style="fill:#231F20;" d="M112.667,2.827H15.333c-4.213,0-8.053,1.733-10.827,4.507
		C1.733,10.107,0,13.947,0,18.16c0,8.427,6.907,15.333,15.333,15.333h97.333c4.213,0,8.053-1.733,10.827-4.507
		C126.267,26.213,128,22.373,128,18.16C128,9.733,121.093,2.827,112.667,2.827z M81.333,22.16c-2.213,0-4-1.787-4-4
		c0-2.213,1.787-4,4-4s4,1.787,4,4C85.333,20.373,83.547,22.16,81.333,22.16z M97.333,22.16c-2.213,0-4-1.787-4-4
		c0-2.213,1.787-4,4-4s4,1.787,4,4C101.333,20.373,99.547,22.16,97.333,22.16z M113.333,24.16c-3.307,0-6-2.693-6-6s2.693-6,6-6
		s6,2.693,6,6S116.64,24.16,113.333,24.16z M69.333,97.52V70.827h43.333c4.213,0,8.053-1.733,10.827-4.507
		c3.347-3.348,5.18-8.249,4.278-13.485c-1.282-7.444-8.095-12.675-15.649-12.675l-96.789,0c-4.213,0-8.053,1.733-10.827,4.507
		c-3.347,3.347-5.18,8.248-4.278,13.484c1.282,7.444,8.094,12.676,15.648,12.676l42.79,0V97.52c-3.627,1.44-6.533,4.347-7.973,7.973
		H5.333c-2.946,0-5.333,2.388-5.333,5.333v0c0,2.946,2.388,5.333,5.333,5.333h45.36c2.107,5.28,7.28,9.013,13.307,9.013
		s11.2-3.733,13.307-9.013h45.36c2.946,0,5.333-2.388,5.333-5.333v0c0-2.946-2.388-5.333-5.333-5.333h-45.36
		C75.867,101.867,72.96,98.96,69.333,97.52z M113.333,49.493c3.307,0,6,2.693,6,6s-2.693,6-6,6s-6-2.693-6-6
		S110.027,49.493,113.333,49.493z M97.333,51.493c2.213,0,4,1.787,4,4c0,2.213-1.787,4-4,4s-4-1.787-4-4
		C93.333,53.28,95.12,51.493,97.333,51.493z M81.333,51.493c2.213,0,4,1.787,4,4c0,2.213-1.787,4-4,4s-4-1.787-4-4
		C77.333,53.28,79.12,51.493,81.333,51.493z"/>
</g>
<g id="Layer_1">
</g>
</svg>
